<?xml version="1.0" standalone="no"?>
<!DOCTYPE svg PUBLIC "-//W3C//DTD SVG 20010904//EN"
 "http://www.w3.org/TR/2001/REC-SVG-20010904/DTD/svg10.dtd">
<svg version="1.0" xmlns="http://www.w3.org/2000/svg"
 width="250.000000pt" height="500.000000pt" viewBox="0 0 250.000000 500.000000"
 preserveAspectRatio="xMidYMid meet">

<g transform="translate(0.000000,500.000000) scale(0.100000,-0.100000)"
fill="#FFFFFF" stroke="#FFFFFF">
<path d="M1291 4983 c-21 -17 -23 -25 -17 -66 9 -56 39 -97 72 -97 70 0 148
-69 272 -240 171 -236 284 -353 401 -414 99 -51 160 -66 275 -66 181 0 193 18
34 48 -155 29 -238 71 -338 171 -73 72 -105 117 -279 391 -36 55 -88 127 -117
159 -94 103 -246 160 -303 114z"/>
<path d="M1105 4953 c-231 -90 -356 -158 -491 -267 -210 -169 -348 -407 -385
-665 -62 -435 202 -1051 598 -1398 80 -70 109 -81 155 -62 75 31 168 127 168
173 0 10 -21 37 -47 60 -200 175 -298 281 -395 425 -128 192 -238 446 -268
621 -20 113 -16 280 9 374 43 163 136 315 267 435 89 82 166 136 306 217 155
90 193 129 83 87z"/>
<path d="M990 4361 c-87 -31 -91 -43 -61 -193 67 -325 202 -430 551 -431 146
-1 247 16 535 89 297 76 499 186 472 258 -6 15 -8 15 -26 -3 -41 -41 -252 -89
-586 -131 -266 -34 -480 -21 -593 38 -57 29 -79 79 -101 228 -16 106 -24 132
-42 146 -27 23 -80 22 -149 -1z"/>
<path d="M1214 3516 c-17 -14 -43 -52 -58 -85 -33 -74 -28 -87 50 -132 208
-119 438 -388 543 -636 57 -133 83 -239 88 -365 6 -132 -5 -210 -44 -303 -112
-269 -370 -443 -863 -582 -165 -46 -177 -55 -65 -49 200 10 496 91 684 186
236 119 384 265 481 474 51 110 70 201 70 338 -1 138 -16 230 -63 370 -86 257
-259 510 -457 669 -114 92 -195 132 -274 137 -55 4 -65 1 -92 -22z"/>
<path d="M275 2710 c-46 -50 43 -249 178 -396 80 -88 86 -69 18 59 -62 117
-105 216 -97 224 3 3 67 -16 143 -41 76 -25 141 -46 145 -46 10 0 40 99 35
114 -3 7 -16 16 -29 18 -13 3 -95 24 -184 47 -88 22 -168 41 -176 41 -8 0 -23
-9 -33 -20z"/>
<path d="M866 2255 c-288 -55 -544 -202 -692 -398 -274 -363 -216 -884 140
-1256 295 -306 730 -523 1175 -585 358 -50 648 21 831 204 83 82 127 158 157
270 24 87 23 315 -1 415 -49 206 -193 355 -359 372 -133 14 -252 -59 -259
-159 -3 -55 6 -55 33 -1 72 144 270 132 383 -24 96 -132 120 -393 55 -591 -54
-162 -169 -263 -357 -314 -101 -27 -307 -29 -437 -4 -199 38 -414 115 -575
207 -418 236 -642 521 -680 862 -23 211 36 383 181 529 66 66 92 84 190 131
138 67 214 86 386 96 96 6 139 13 158 25 39 25 85 95 85 128 0 37 -35 73 -86
88 -64 19 -240 21 -328 5z"/>
<path d="M519 1378 c-17 -28 -20 -45 -16 -109 3 -62 10 -91 40 -154 71 -149
184 -289 337 -417 278 -234 544 -349 896 -389 338 -38 529 93 542 371 7 157
-48 327 -139 425 -77 83 -146 99 -200 46 -32 -32 -42 -66 -11 -38 73 66 157
22 226 -118 39 -80 57 -160 57 -259 0 -79 -3 -95 -31 -152 -67 -136 -205 -183
-435 -149 -353 52 -611 179 -867 423 -173 167 -252 286 -284 433 -9 41 -23 84
-30 97 -22 33 -60 29 -85 -10z"/>
</g>
</svg>
